<svg width="180" height="180" viewBox="0 0 180 180" fill="none" xmlns="http://www.w3.org/2000/svg">
<path d="M85.7672 21.6563C86.541 22.7278 86.9456 24.0217 86.9203 25.3431C86.8949 26.6645 86.4409 27.9419 85.6266 28.9829C80.9438 34.9735 71.0156 46.9688 61.1438 54.2532C48.9656 63.2532 37.8703 67.2891 32.2172 68.9344C29.7141 69.6657 27.0422 68.6954 25.5375 66.5719C21.825 61.3547 15.9188 50.1751 18.2391 34.3547C21.5156 11.8547 47.2922 0.998496 63.9984 6.3985C80.7047 11.7985 85.7672 21.6563 85.7672 21.6563Z" fill="#FFC107"/>
<path d="M34.4531 64.7301C32.8078 65.4191 31.3172 63.4926 32.3719 62.0723C35.4656 57.9379 41.4703 51.1598 52.425 42.3285C64.3078 32.752 72.7313 29.3629 77.3297 28.1676C78.9188 27.7598 80.1422 29.5457 79.186 30.8816C76.0781 35.241 69.5391 43.2004 58.8375 50.8363C48.4594 58.2473 39.6563 62.5363 34.4531 64.7301Z" fill="url(#paint0_radial_40_87)"/>
<path d="M46.0266 12.291C46.6734 15.0754 50.1891 16.0457 53.5922 15.4692C57.2766 14.8504 61.9172 14.3301 61.4813 10.5895C61.0313 6.72229 54.8719 6.87698 52.5938 7.00354C49.2609 7.20042 45.45 9.83011 46.0266 12.291Z" fill="#FFEE58"/>
<path d="M118.477 5.23138C135.295 0.703253 159.989 6.497 164.939 35.6345C166.823 46.7017 162.422 56.5033 159.342 61.7345C157.823 64.322 154.856 65.7001 151.917 65.1095C146.18 63.9564 135.492 60.7361 121.177 51.7923C113.217 46.8283 102.389 37.1533 96.2578 31.4579C93.4875 28.8845 93.2203 24.5673 95.7094 21.7126C100.575 16.1298 109.139 7.74857 118.477 5.23138Z" fill="#FFC107"/>
<path d="M103.247 31.64C102.361 30.7541 103.205 29.2634 104.428 29.5728C109.8 30.9228 119.714 33.9462 128.517 39.4447C137.545 45.0978 146.672 53.69 151.298 58.2884C152.212 59.1884 151.313 60.7072 150.075 60.3416C144.422 58.6962 134.03 55.04 123.75 48.1072C113.302 41.0619 106.65 35.0291 103.247 31.64Z" fill="url(#paint1_radial_40_87)"/>
<path d="M117.548 16.6505C111.994 18.3943 110.433 14.4708 113.4 11.4896C115.537 9.33803 124.552 5.49897 132.37 7.13022C137.531 8.21303 139.148 15.6521 131.878 15.5537C126.928 15.4833 124.355 14.513 117.548 16.6505Z" fill="#FFEE58"/>
<path d="M154.716 168.82C137.208 157.809 125.48 136.364 123.342 111.445C121.416 88.9309 126.872 66.1355 131.259 47.8262L140.259 51.9184C136.069 69.4402 132.778 89.7746 134.55 110.475C136.378 131.892 146.166 150.145 160.706 159.286L154.716 168.82ZM85.1906 164.939L80.55 154.687C86.0484 152.198 89.2266 144.984 87.3422 139.261C86.4281 136.462 84.4594 133.79 82.3922 130.964C80.7047 128.657 78.9469 126.267 77.5125 123.525C73.7719 116.353 72.8859 107.775 75.1078 99.998C76.2328 96.0746 78.0188 92.6012 79.7625 89.2402C81.7313 85.4434 83.5734 81.8715 84.0516 78.2715C84.4875 74.9387 83.7 71.409 81.8719 68.5824C80.2125 66.0371 77.6531 63.8434 74.9391 61.5371C72.8859 59.7793 70.7484 57.9652 68.7937 55.8277C64.1672 50.7652 62.3672 44.7324 62.3953 37.9965L70.2281 35.0293C70.2281 35.0293 71.6484 42.6793 73.5609 45.7309C75.5719 48.923 78.5672 51.0887 81.4078 53.5074C84.6141 56.2496 88.7625 58.5418 91.3078 62.4793C94.5703 67.5137 95.9906 73.8137 95.2031 79.7762C94.4719 85.3168 92.0672 89.9574 89.7469 94.4434C88.2 97.4387 86.7375 100.265 85.9219 103.12C84.4875 108.154 85.05 113.709 87.4828 118.35C88.5234 120.346 89.9438 122.287 91.4625 124.354C93.9656 127.771 96.5531 131.287 98.0297 135.787C101.728 146.967 95.9625 160.073 85.1906 164.939Z" fill="#03A9F4"/>
<path d="M14.7797 173.405L8.12812 164.335C50.7797 133.088 55.3219 87.3283 52.3125 64.0127L60.8063 61.4111C64.1391 87.1877 62.0859 138.755 14.7797 173.405Z" fill="#F48FB1"/>
<path d="M133.481 103.163L134.227 103.74C134.142 99.1133 134.367 94.4586 134.803 89.8461C131.034 86.7102 127.519 83.3492 124.988 79.4117C124.917 79.2992 124.861 79.1867 124.791 79.0742C124.031 84.1367 123.441 89.3117 123.159 94.5289C126.52 97.7492 130.12 100.562 133.481 103.163Z" fill="#0076C6"/>
<path d="M161.62 134.086L151.411 129.346C154.013 123.75 151.833 116.986 148.936 112.528C145.167 106.734 139.233 102.121 133.481 97.6637C127.308 92.8824 120.319 87.4684 115.509 79.973C106.664 66.2059 108.225 49.0637 118.195 36.084L126.366 40.6543C119.194 50.0059 118.617 63.9699 124.973 73.884C128.728 79.748 134.648 84.3184 140.372 88.7621C146.559 93.5574 153.563 98.9855 158.372 106.382C164.166 115.312 165.417 125.929 161.62 134.086ZM12.6422 130.204C10.5328 118.279 19.2516 112.106 23.9344 108.787C24.4969 108.393 25.1859 107.901 25.6641 107.521C25.6219 106.523 24.9469 105.271 23.6813 103.148C21.6 99.6465 18.7594 94.8371 20.9391 88.7199C22.8375 83.4043 28.35 81.6465 32.0063 79.5934C35.1281 77.8355 37.3922 75.698 38.5172 72.1262C39.825 67.9637 38.9109 57.5012 38.9109 57.5012L45.7734 53.4934C45.7734 53.4934 47.9391 63.4918 47.9391 68.5824C47.9391 83.0105 39.9375 86.6949 36.5625 88.5934C34.2281 89.9012 32.0203 91.1387 31.5422 92.4887C31.1906 93.473 31.6828 94.584 33.3703 97.4246C35.3953 100.828 38.1516 105.511 36.3516 111.487C35.4797 114.398 33.0328 116.142 30.4453 117.97C25.8609 121.218 22.9078 123.693 23.7234 128.25L12.6422 130.204ZM105.539 115.678C100.533 114.482 97.1156 111.501 94.05 108.97L101.222 100.293C101.222 100.293 103.767 104.076 109.35 105.82L105.539 115.678ZM96.5109 52.3684L88.2 47.4887L94.2188 37.9684L102.544 42.848L96.5109 52.3684ZM118.083 159.693L106.875 152.732L115.523 143.114L124.172 151.326L118.083 159.693Z" fill="#F44336"/>
<path d="M153.572 84.6076L160.168 75.4951L169.955 82.577L163.358 91.6895L153.572 84.6076Z" fill="#FB8C00"/>
<path d="M74.3766 80.2402L64.4485 73.3777L69.6094 66.5293L79.5235 73.3918L74.3766 80.2402Z" fill="#F44336"/>
<path d="M86.3859 92.2352C86.3859 92.2352 88.2984 92.1649 90.675 92.6289C92.3906 89.2539 94.0219 85.7383 94.8656 81.7867C91.9406 81.1258 89.5922 81.4492 89.5922 81.4492L86.3859 92.2352Z" fill="#0076C6"/>
<path d="M99.7312 93.5575C95.8078 90.2106 89.2547 90.4496 89.2547 90.4496L92.4469 79.6637C92.4469 79.6637 99.7031 78.6512 104.597 83.7559L99.7312 93.5575ZM6.52641 138.248L16.7316 137.624L17.4164 148.854L7.21266 149.476L6.52641 138.248ZM60.7078 136.279L54.225 127.082C57.0938 125.057 59.7234 122.653 62.0016 119.967L70.5797 127.251C67.6786 130.661 64.3622 133.694 60.7078 136.279Z" fill="#FB8C00"/>
<path d="M60.7922 162.268C57.4172 159.484 53.8453 156.896 50.1609 154.562L56.1797 145.056C60.2578 147.629 64.2094 150.498 67.95 153.578L60.7922 162.268Z" fill="#F44336"/>
<path d="M123.539 112.627C123.933 117.282 124.481 120.629 125.522 124.988L132.933 119.039L125.719 110.025L123.539 112.627Z" fill="#0076C6"/>
<path d="M111.614 119.805L122.948 110.719L129.984 119.495L118.65 128.582L111.614 119.805Z" fill="#FFC107"/>
<path d="M107.747 176.148C105.778 172.534 103.57 169.004 101.18 165.657L110.334 159.118C113.002 162.849 115.434 166.743 117.619 170.776L107.747 176.148Z" fill="#FB8C00"/>
<defs>
<radialGradient id="paint0_radial_40_87" cx="0" cy="0" r="1" gradientUnits="userSpaceOnUse" gradientTransform="translate(55.7747 46.4995) scale(21.2372 21.2372)">
<stop offset="0.376" stop-color="#AF5700"/>
<stop offset="1" stop-color="#8F4700"/>
</radialGradient>
<radialGradient id="paint1_radial_40_87" cx="0" cy="0" r="1" gradientUnits="userSpaceOnUse" gradientTransform="translate(127.267 44.9572) scale(29.8462 29.8462)">
<stop offset="0.376" stop-color="#AF5700"/>
<stop offset="1" stop-color="#8F4700"/>
</radialGradient>
</defs>
</svg>
