<svg width="80" height="54" viewBox="0 0 80 54" fill="none" xmlns="http://www.w3.org/2000/svg">
<mask id="mask0_165_2" style="mask-type:luminance" maskUnits="userSpaceOnUse" x="0" y="6" width="53" height="42">
<path d="M52.695 6.42871H0.304993V47.0836H52.695V6.42871Z" fill="white"/>
</mask>
<g mask="url(#mask0_165_2)">
<path d="M46.7156 47.0836H6.29613C2.98865 47.0836 0.316772 44.4 0.316772 41.1043V12.4081C0.316772 9.10059 3.00042 6.42871 6.29613 6.42871H46.7156C50.0231 6.42871 52.695 9.11236 52.695 12.4081V41.0925C52.7068 44.4 50.0231 47.0836 46.7156 47.0836Z" fill="url(#paint0_linear_165_2)"/>
</g>
<mask id="mask1_165_2" style="mask-type:luminance" maskUnits="userSpaceOnUse" x="0" y="6" width="53" height="42">
<path d="M52.695 6.42871H0.304993V47.0836H52.695V6.42871Z" fill="white"/>
</mask>
<g mask="url(#mask1_165_2)">
<path opacity="0.5" d="M55.6258 26.733V25.8031H33.1797V19.8237L38.1938 14.8096H53.9309V13.8797H37.8054L32.5205 19.1646H26.5412V4.23975H25.6113V19.1528H19.6319L14.347 13.8679H-1.79015V14.7978H13.9469L18.961 19.812V25.7913H-3.49686V26.7212H18.961V32.7005L13.4878 38.1738H-1.79015V39.1036H13.8645L19.6084 33.3479H25.5878V48.261H26.5176V33.3714H32.497L38.2409 39.1272H53.8955V38.1973H38.6529L33.1797 32.7241V26.7447H55.6258V26.733ZM32.238 32.4416H19.8791V20.0827H32.238V32.4416Z" fill="url(#paint1_linear_165_2)"/>
</g>
<mask id="mask2_165_2" style="mask-type:luminance" maskUnits="userSpaceOnUse" x="0" y="6" width="53" height="42">
<path d="M52.695 6.42871H0.304993V47.0836H52.695V6.42871Z" fill="white"/>
</mask>
<g mask="url(#mask2_165_2)">
<path d="M56.073 27.2154V26.2855H33.6152V20.3062L38.6293 15.292H54.3663V14.3621H38.2409L32.956 19.647H26.9767V4.72217H26.0468V19.6352H20.0674L14.7708 14.3621H-1.34289V15.292H14.3941L19.4083 20.3062V26.2855H-3.04959V27.2154H19.4083V33.1947L13.9351 38.668H-1.34289V39.5978H14.3117L20.0557 33.8421H26.035V48.7552H26.9649V33.8656H32.9442L38.6882 39.6214H54.3428V38.6915H39.0884L33.6152 33.2183V27.2389H56.073V27.2154ZM32.6853 32.9358H20.3264V20.5769H32.6853V32.9358Z" fill="#231912"/>
</g>
<path d="M70.0775 15.5063C72.8448 18.6002 74.3746 22.6055 74.3746 26.7563C74.3746 30.9072 72.8448 34.9125 70.0775 38.0063" stroke="white" stroke-width="2.25" stroke-linecap="round" stroke-linejoin="round"/>
<path d="M65.5336 18.8813C67.5949 20.9843 68.7495 23.8116 68.7495 26.7563C68.7495 29.7011 67.5949 32.5284 65.5336 34.6313" stroke="white" stroke-width="2.25" stroke-linecap="round" stroke-linejoin="round"/>
<path d="M61.5174 22.8188C62.548 23.8703 63.1253 25.284 63.1253 26.7563C63.1253 28.2287 62.548 29.6424 61.5174 30.6938" stroke="white" stroke-width="2.25" stroke-linecap="round" stroke-linejoin="round"/>
<defs>
<linearGradient id="paint0_linear_165_2" x1="2.15884" y1="6.80277" x2="53.4232" y2="48.808" gradientUnits="userSpaceOnUse">
<stop stop-color="#B56110"/>
<stop offset="0.1507" stop-color="#B56110"/>
<stop offset="0.4638" stop-color="#E5AD5C"/>
<stop offset="0.6129" stop-color="#F9CC7B"/>
<stop offset="0.7204" stop-color="#FFE6A6"/>
<stop offset="0.8387" stop-color="#F9CC7B"/>
<stop offset="1" stop-color="#B56110"/>
</linearGradient>
<linearGradient id="paint1_linear_165_2" x1="-3.49686" y1="26.2665" x2="55.6291" y2="26.2665" gradientUnits="userSpaceOnUse">
<stop stop-color="#B56110"/>
<stop offset="0.1507" stop-color="#B56110"/>
<stop offset="0.4638" stop-color="#E5AD5C"/>
<stop offset="0.6129" stop-color="#F9CC7B"/>
<stop offset="0.7204" stop-color="#FFE6A6"/>
<stop offset="0.8387" stop-color="#F9CC7B"/>
<stop offset="1" stop-color="#B56110"/>
</linearGradient>
</defs>
</svg>
