<svg width="108" height="108" viewBox="0 0 108 108" fill="none" xmlns="http://www.w3.org/2000/svg">
<rect width="108" height="108" rx="24" fill=""/>
<path fill-rule="evenodd" clip-rule="evenodd" d="M61.4516 23.7863C61.4516 23.5778 61.3688 23.3778 61.2213 23.2303C61.0739 23.0828 60.8739 23 60.6653 23H38.6492C36.3553 23 34.1553 23.9113 32.5333 25.5333C30.9113 27.1553 30 29.3553 30 31.6492V75.6815C30 77.9754 30.9113 80.1753 32.5333 81.7974C34.1553 83.4194 36.3553 84.3306 38.6492 84.3306H70.1008C72.3947 84.3306 74.5947 83.4194 76.2167 81.7974C77.8388 80.1753 78.75 77.9754 78.75 75.6815V44.6922C78.75 44.4836 78.6672 44.2836 78.5197 44.1362C78.3722 43.9887 78.1722 43.9059 77.9637 43.9059H63.8105C63.1849 43.9059 62.5849 43.6574 62.1425 43.215C61.7001 42.7726 61.4516 42.1726 61.4516 41.547V23.7863ZM63.8105 54.4516C64.4361 54.4516 65.0361 54.7001 65.4785 55.1425C65.9208 55.5849 66.1694 56.1849 66.1694 56.8105C66.1694 57.4361 65.9208 58.0361 65.4785 58.4785C65.0361 58.9208 64.4361 59.1694 63.8105 59.1694H44.9395C44.3139 59.1694 43.7139 58.9208 43.2715 58.4785C42.8292 58.0361 42.5806 57.4361 42.5806 56.8105C42.5806 56.1849 42.8292 55.5849 43.2715 55.1425C43.7139 54.7001 44.3139 54.4516 44.9395 54.4516H63.8105ZM63.8105 67.0323C64.4361 67.0323 65.0361 67.2808 65.4785 67.7232C65.9208 68.1655 66.1694 68.7655 66.1694 69.3911C66.1694 70.0167 65.9208 70.6167 65.4785 71.0591C65.0361 71.5015 64.4361 71.75 63.8105 71.75H44.9395C44.3139 71.75 43.7139 71.5015 43.2715 71.0591C42.8292 70.6167 42.5806 70.0167 42.5806 69.3911C42.5806 68.7655 42.8292 68.1655 43.2715 67.7232C43.7139 67.2808 44.3139 67.0323 44.9395 67.0323H63.8105Z" fill="white"/>
<path d="M66.1692 24.8048C66.1692 24.2261 66.7762 23.8581 67.226 24.2198C67.6065 24.528 67.9494 24.8866 68.2419 25.2955L77.7182 38.4957C77.9321 38.7976 77.6993 39.1876 77.3282 39.1876H66.9555C66.7469 39.1876 66.5469 39.1048 66.3995 38.9573C66.252 38.8099 66.1692 38.6099 66.1692 38.4013V24.8048Z" fill="white"/>
</svg>
