<svg width="20" height="20" viewBox="0 0 20 20" fill="none" xmlns="http://www.w3.org/2000/svg">
<path d="M2.39624 10.065C2.39624 11.4868 2.81785 12.8766 3.60776 14.0588C4.39767 15.241 5.5204 16.1624 6.83397 16.7065C8.14755 17.2506 9.59296 17.393 10.9874 17.1156C12.3819 16.8382 13.6628 16.1535 14.6682 15.1482C15.6736 14.1428 16.3582 12.8619 16.6356 11.4674C16.913 10.0729 16.7706 8.62753 16.2265 7.31395C15.6824 6.00038 14.761 4.87765 13.5788 4.08774C12.3967 3.29783 11.0068 2.87622 9.58499 2.87622C7.5753 2.88378 5.64633 3.66796 4.20142 5.0648L2.39624 6.86997" fill="white"/>
<path d="M2.39624 10.065C2.39624 11.4868 2.81785 12.8766 3.60776 14.0588C4.39767 15.241 5.5204 16.1624 6.83397 16.7065C8.14755 17.2506 9.59296 17.393 10.9874 17.1156C12.3819 16.8382 13.6628 16.1535 14.6682 15.1482C15.6736 14.1428 16.3582 12.8619 16.6356 11.4674C16.913 10.0729 16.7706 8.62753 16.2265 7.31396C15.6824 6.00038 14.761 4.87765 13.5788 4.08774C12.3967 3.29783 11.0068 2.87622 9.58499 2.87622C7.5753 2.88378 5.64633 3.66796 4.20142 5.0648L2.39624 6.86997" stroke="#8088B0" stroke-width="1.5975" stroke-linecap="round" stroke-linejoin="round"/>
<path d="M2.39624 2.87622V6.86997H6.38999" stroke="#8088B0" stroke-width="1.5975" stroke-linecap="round" stroke-linejoin="round"/>
<path d="M9.58502 6.07129V10.065L12.78 11.6625" stroke="#8088B0" stroke-width="1.5975" stroke-linecap="round" stroke-linejoin="round"/>
</svg>
