<svg width="16" height="17" viewBox="0 0 16 17" fill="none" xmlns="http://www.w3.org/2000/svg">
<path fill-rule="evenodd" clip-rule="evenodd" d="M0.42734 5.61481C0.0119629 6.37127 0.0119629 7.2859 0.0119629 9.11356V10.3293C0.0119629 13.4447 0.0119628 15.0031 0.94816 15.9713C1.88356 16.9394 3.3901 16.9394 6.40239 16.9394H9.5976C12.6099 16.9394 14.1164 16.9394 15.0518 15.9713C15.988 15.0031 15.988 13.4455 15.988 10.3293V9.11436C15.988 7.2859 15.988 6.37207 15.5726 5.61481C15.1589 4.85674 14.4008 4.38705 12.8855 3.44606L11.2879 2.45474C9.68626 1.46023 8.88506 0.963379 7.99999 0.963379C7.11492 0.963379 6.31452 1.46023 4.71212 2.45474L3.11451 3.44606C1.59918 4.38705 0.841919 4.85674 0.42734 5.61481ZM7.40089 13.7442C7.40089 13.9031 7.46401 14.0555 7.57636 14.1679C7.68872 14.2802 7.8411 14.3433 7.99999 14.3433C8.15888 14.3433 8.31127 14.2802 8.42362 14.1679C8.53597 14.0555 8.59909 13.9031 8.59909 13.7442V11.3478C8.59909 11.1889 8.53597 11.0365 8.42362 10.9242C8.31127 10.8118 8.15888 10.7487 7.99999 10.7487C7.8411 10.7487 7.68872 10.8118 7.57636 10.9242C7.46401 11.0365 7.40089 11.1889 7.40089 11.3478V13.7442Z" fill="white"/>
</svg>
