<svg width="108" height="108" viewBox="0 0 108 108" fill="none" xmlns="http://www.w3.org/2000/svg">
<g clip-path="url(#clip0_220_9)">
<path d="M54 0C39.6816 0 25.9369 5.69278 15.8203 15.8161C5.69331 25.9434 0.00280521 39.678 0 54C0 68.3159 5.69531 82.0606 15.8203 92.1839C25.9369 102.307 39.6816 108 54 108C68.3184 108 82.0631 102.307 92.1797 92.1839C102.305 82.0606 108 68.3159 108 54C108 39.6841 102.305 25.9394 92.1797 15.8161C82.0631 5.69278 68.3184 0 54 0Z" fill=""/>
<path d="M24.4435 53.4297C40.1879 46.5717 50.6842 42.05 55.9323 39.8656C70.9342 33.6277 74.0476 32.5443 76.081 32.5076C76.5282 32.5005 77.5239 32.611 78.1735 33.1362C78.7135 33.5792 78.8654 34.1783 78.9413 34.5989C79.0088 35.0191 79.1017 35.9767 79.0257 36.7243C78.2157 45.263 74.6973 65.9838 72.9085 75.5478C72.1576 79.5944 70.6642 80.9511 69.2214 81.0836C66.0826 81.3722 63.7032 79.0113 60.6657 77.0209C55.9154 73.905 53.2323 71.966 48.617 68.926C43.2845 65.4126 46.7439 63.4813 49.7814 60.3257C50.5745 59.4996 64.3951 46.932 64.6567 45.7921C64.6904 45.6495 64.7242 45.1179 64.4035 44.8378C64.0914 44.5568 63.6273 44.653 63.2898 44.7289C62.8089 44.8369 55.2235 49.8556 40.5085 59.784C38.357 61.2639 36.4079 61.9853 34.6529 61.9473C32.7292 61.906 29.0167 60.8572 26.2576 59.9612C22.8826 58.8618 20.191 58.2804 20.4273 56.4132C20.5454 55.4412 21.887 54.4464 24.4435 53.4297Z" fill="white"/>
</g>
<defs>
<clipPath id="clip0_220_9">
<rect width="108" height="108" fill="white"/>
</clipPath>
</defs>
</svg>
