<svg width="108" height="108" viewBox="0 0 108 108" fill="none" xmlns="http://www.w3.org/2000/svg">
<g clip-path="url(#clip0_220_2)">
<path d="M82.6875 0H25.3125C11.3328 0 0 11.3328 0 25.3125V82.6875C0 96.6672 11.3328 108 25.3125 108H82.6875C96.6672 108 108 96.6672 108 82.6875V25.3125C108 11.3328 96.6672 0 82.6875 0Z" fill=""/>
<path d="M82.6875 0H25.3125C11.3328 0 0 11.3328 0 25.3125V82.6875C0 96.6672 11.3328 108 25.3125 108H82.6875C96.6672 108 108 96.6672 108 82.6875V25.3125C108 11.3328 96.6672 0 82.6875 0Z" fill=""/>
<path d="M84.1944 38.564C84.2408 39.2335 84.2408 39.903 84.2408 40.5789C84.2408 61.1651 68.569 84.9074 39.9123 84.9074V84.8947C31.4466 84.907 23.1563 82.4824 16.0312 77.9106C17.2623 78.0587 18.4992 78.1325 19.7395 78.1355C26.7561 78.141 33.5709 75.7876 39.0888 71.4534C35.8378 71.392 32.6872 70.3162 30.0775 68.3764C27.4678 66.4366 25.5296 63.7298 24.5337 60.6344C26.8679 61.0844 29.2742 60.9926 31.5672 60.3661C24.2992 58.8975 19.07 52.5116 19.07 45.095V44.8976C21.2367 46.1044 23.6616 46.7732 26.1406 46.8475C19.2953 42.2723 17.1851 33.1653 21.3186 26.0449C25.2299 30.858 30.11 34.7946 35.6419 37.5988C41.1738 40.403 47.2336 42.0121 53.4279 42.3216C52.8103 39.6631 52.9016 36.8891 53.6925 34.2769C54.4834 31.6648 55.9463 29.306 57.9348 27.4366C64.2098 21.538 74.0787 21.8405 79.9774 28.112C83.4663 27.4232 86.8121 26.1442 89.8708 24.3299C88.7077 27.9372 86.2739 30.9992 83.022 32.9463C86.1104 32.5824 89.1265 31.7557 91.9688 30.4939C89.878 33.6251 87.2453 36.3577 84.1944 38.564Z" fill="white"/>
</g>
<defs>
<clipPath id="clip0_220_2">
<rect width="108" height="108" fill=""/>
</clipPath>
</defs>
</svg>
