<svg width="38" height="27" viewBox="0 0 38 27" fill="none" xmlns="http://www.w3.org/2000/svg">
<rect x="0.5" y="0.5" width="37" height="26" fill="white"/>
<rect x="0.5" y="0.5" width="37" height="26" stroke="#C9C9C9"/>
<path d="M19.4466 11.6841C19.4317 12.8537 20.4889 13.5064 21.2853 13.8944C22.1034 14.2926 22.3783 14.5479 22.375 14.904C22.3689 15.4488 21.7224 15.6893 21.1174 15.6987C20.0618 15.715 19.4481 15.4137 18.9602 15.1858L18.5799 16.9651C19.0695 17.1906 19.9759 17.3874 20.9159 17.396C23.1223 17.396 24.5658 16.3068 24.5736 14.6182C24.5823 12.475 21.6092 12.3564 21.6296 11.3984C21.6366 11.108 21.9137 10.798 22.5211 10.7192C22.8217 10.6794 23.6516 10.6489 24.5924 11.0822L24.9617 9.36068C24.4557 9.17644 23.8054 9.00003 22.9958 9.00003C20.919 9.00003 19.4584 10.104 19.4466 11.6841ZM28.5101 9.14831C28.1072 9.14831 27.7677 9.38332 27.6162 9.74397L24.4644 17.2696H26.6692L27.1079 16.057H29.8022L30.0567 17.2696H32L30.3042 9.14831H28.5101ZM28.8186 11.3422L29.4548 14.3918H27.7122L28.8186 11.3422ZM16.7733 9.14841L15.0354 17.2694H17.1364L18.8736 9.14821H16.7733M13.6652 9.14821L11.4784 14.6759L10.5938 9.97594C10.49 9.45127 10.0801 9.14831 9.62487 9.14831H6.05007L6 9.38414C6.73389 9.54339 7.56772 9.80024 8.07289 10.0751C8.38205 10.2429 8.4702 10.3897 8.57177 10.7886L10.2472 17.2696H12.4675L15.8715 9.14831L13.6652 9.14821Z" fill="#201E57"/>
</svg>
